<svg width="163" height="190" viewBox="0 0 163 190" fill="none" xmlns="http://www.w3.org/2000/svg">
<path fill-rule="evenodd" clip-rule="evenodd" d="M45.2188 0.230264L61.6663 14.0013C67.5315 11.7302 74.1624 10.4507 81.1836 10.4507C88.2047 10.4507 94.8358 11.7302 100.701 14.0013L117.144 0.234037C117.737 -0.26263 118.645 0.0895228 118.748 0.856286L123.583 36.8014C124.185 39.0052 124.501 41.2894 124.501 43.6302C124.501 61.9547 105.107 76.8096 81.1836 76.8096C57.2599 76.8096 37.866 61.9547 37.866 43.6301C37.866 43.3183 37.8716 43.0075 37.8827 42.6977L37.866 42.7086L37.8888 42.5423C37.9578 40.9021 38.1822 39.2921 38.5511 37.7204L43.615 0.849797C43.7201 0.0845457 44.6266 -0.265612 45.2188 0.230264Z" fill="#262626"/>
<circle cx="102.61" cy="38.3291" r="9.4453" fill="#FFC166"/>
<circle cx="102.611" cy="38.3291" r="7.77145" fill="#262626"/>
<ellipse cx="96.998" cy="33.8296" rx="1.67943" ry="1.67943" fill="white"/>
<circle cx="60.2143" cy="38.3291" r="9.4453" fill="#FFC166"/>
<circle cx="60.2146" cy="38.3291" r="7.77145" fill="#262626"/>
<ellipse cx="54.6017" cy="33.8296" rx="1.67943" ry="1.67943" fill="white"/>
<path d="M81.559 39.0217C79.9963 39.0217 78.3861 39.2416 77.1835 39.4678C76.4924 39.5979 76.2587 40.4275 76.7504 40.9301L80.877 45.1485C81.2473 45.5269 81.8595 45.5164 82.2165 45.1254L86.0975 40.8748C86.5514 40.3776 86.3311 39.5952 85.6716 39.4596C84.5856 39.2363 83.1027 39.0217 81.559 39.0217Z" fill="#E18071"/>
<path d="M47.8593 37.8694C42.4435 35.2558 29.5449 30.1778 4.68665 30.7752" stroke="#262626" stroke-width="0.999062" stroke-linecap="round"/>
<path d="M114.824 37.8694C120.24 35.2558 133.138 30.1778 157.997 30.7752" stroke="#262626" stroke-width="0.999062" stroke-linecap="round"/>
<path d="M43.395 43.2265C38.9255 43.3859 25.4237 41.7868 9.46741 47.6906" stroke="#262626" stroke-width="0.999062" stroke-linecap="round"/>
<path d="M119.288 43.2265C123.758 43.3859 137.259 41.7868 153.216 47.6906" stroke="#262626" stroke-width="0.999062" stroke-linecap="round"/>
<path d="M41.5527 39.4823C35.1011 38.0999 18.5114 36.2566 1 39.4824" stroke="#262626" stroke-width="0.921652" stroke-linecap="round"/>
<path d="M121.13 39.4823C127.582 38.0999 144.172 36.2566 161.683 39.4824" stroke="#262626" stroke-width="0.921652" stroke-linecap="round"/>
<path fill-rule="evenodd" clip-rule="evenodd" d="M24 67.3714V182.521C24 186.651 27.316 190 31.4081 190H130.596C134.684 190 138 186.651 138 182.521V49.4791C138 45.3487 134.684 42 130.596 42H51.4444L24 67.3714Z" fill="#F1F1F1"/>
<path fill-rule="evenodd" clip-rule="evenodd" d="M51.4444 42V59.6697C51.4444 63.924 47.9145 67.3714 43.5583 67.3714H24L51.4444 42Z" fill="#CFCFCF"/>
<path fill-rule="evenodd" clip-rule="evenodd" d="M45.1111 96.9715H116.889V90.6287H45.1111V96.9715Z" fill="black" fill-opacity="0.56"/>
<path fill-rule="evenodd" clip-rule="evenodd" d="M45.1111 111.772H116.889V105.429H45.1111V111.772Z" fill="black" fill-opacity="0.56"/>
<path fill-rule="evenodd" clip-rule="evenodd" d="M45.1111 126.571H116.889V120.229H45.1111V126.571Z" fill="black" fill-opacity="0.56"/>
<path fill-rule="evenodd" clip-rule="evenodd" d="M45.1111 141.371H116.889V135.029H45.1111V141.371Z" fill="black" fill-opacity="0.56"/>
<path fill-rule="evenodd" clip-rule="evenodd" d="M45.1111 156.171H116.889V149.829H45.1111V156.171Z" fill="black" fill-opacity="0.56"/>
<path fill-rule="evenodd" clip-rule="evenodd" d="M45.1111 82.1715H116.889V75.8286H45.1111V82.1715Z" fill="black" fill-opacity="0.56"/>
<path fill-rule="evenodd" clip-rule="evenodd" d="M40.6566 42.6348C37.6888 43.6643 34.3691 45.792 31.6526 48.8359C27.5658 53.4152 26.03 58.7393 26.7769 62.0848C26.8417 63.8411 27.5939 65.5696 29.0088 66.8323C31.7665 69.2934 35.9973 69.0529 38.4584 66.2952C39.4112 65.2275 39.9591 63.939 40.1128 62.6179C41.9944 62.6521 43.8793 61.8968 45.2307 60.3826C46.6988 58.7374 47.2056 56.5681 46.7901 54.5629C47.5436 54.185 48.2412 53.66 48.8382 52.9911C51.3379 50.1901 51.1287 45.9243 48.3709 43.4632C46.2004 41.5262 43.0981 41.2843 40.6566 42.6348Z" fill="#262626"/>
</svg>
